<svg xmlns="http://www.w3.org/2000/svg" viewBox="0 0 48 48" fill="none">
  <path d="M18 8a6 6 0 0 1 12 0" fill="#91B8FF"/>
  <rect x="6" y="13" width="5" height="13" rx="2.5" fill="#4B7BE6"/>
  <rect x="37" y="13" width="5" height="13" rx="2.5" fill="#4B7BE6"/>
  <rect x="9" y="7" width="30" height="26" rx="11" fill="#6C9AFF"/>
  <rect x="12" y="15" width="24" height="14" rx="6" fill="#173F8A"/>
  <path d="m18 19 3 3-3 3M25 25h5" stroke="#D8EDFF" stroke-width="1.8" stroke-linecap="round" stroke-linejoin="round"/>
  <rect x="16" y="32" width="16" height="10" rx="4" fill="#6C9AFF"/>
  <path d="M16 35h-3l-2 5M32 35h3l2 5" stroke="#4B7BE6" stroke-width="3" stroke-linecap="round"/>
  <circle cx="24" cy="36" r="2" fill="#D8EDFF"/>
  <path d="M20 42v3M28 42v3" stroke="#4B7BE6" stroke-width="3" stroke-linecap="round"/>
  <path d="M15 10h9" stroke="#A9CBFF" stroke-width="2" stroke-linecap="round"/>
</svg>
